{
	"asset":{
		"version":"2.0",
		"generator":""
	},
	"scenes":[{
		"nodes":[0,
		1,
		2]
	}],
	"buffers":[{
		"uri":"data:application/octet-stream;base64,",
		"byteLength":78336
	},
	{
		"uri":"data:application/octet-stream;base64,",
		"byteLength":217372
	}],
	"nodes":[{
		"name":"DNA_connected",
		"mesh":0,
		"translation":[-12.872809410095215,
		-10.367522239685059,
		2.3283565044403078],
		"rotation":[-0.050572410225868228,
		-0.0386492982506752,
		-0.42442619800567629,
		0.9032226204872131],
		"scale":[1.0,
		1.0,
		1.0]
	},
	{
		"name":"Protein_connected",
		"mesh":1,
		"translation":[0.0,
		0.08672463148832321,
		90.32540893554688],
		"rotation":[0.0,
		0.0,
		0.0,
		-1.0],
		"scale":[1.0,
		1.0,
		1.0]
	},
	{
		"name":"main",
		"camera":0,
		"translation":[-1.7749875783920289,
		3.1406784057617189,
		34.69502639770508],
		"rotation":[-0.045049574226140979,
		-0.02552882954478264,
		-0.0011516085360199214,
		0.9986578226089478],
		"scale":[1.0,
		1.0,
		1.0]
	}],
	"meshes":[{
		"name":"DNA_connected",
		"primitives":[{
			"attributes":{
				"POSITION":1
			},
			"indices":0
		}]
	},
	{
		"name":"Protein_connected",
		"primitives":[{
			"attributes":{
				"POSITION":3,
				"NORMAL":4,
				"COLOR_0":5
			},
			"indices":2,
			"material":0
		}]
	}],
	"cameras":[{
		"type":"perspective",
		"perspective":{
			"znear":0.009999999776482582,
			"zfar":10000000000.0,
			"aspectRatio":1.7777777910232545,
			"yfov":0.1673794686794281
		}
	}],
	"accessors":[{
		"bufferView":0,
		"type":"SCALAR",
		"componentType":5123,
		"min":[0],
		"count":19734,
		"byteOffset":0,
		"max":[3238]
	},
	{
		"bufferView":1,
		"type":"VEC3",
		"componentType":5126,
		"min":[-1.1846109628677369,
		-0.20000000298023225,
		-1.1861681938171387],
		"count":3239,
		"byteOffset":0,
		"max":[1.1917253732681275,
		26.515901565551759,
		1.1858404874801636]
	},
	{
		"bufferView":2,
		"type":"SCALAR",
		"componentType":5123,
		"min":[0],
		"count":23166,
		"byteOffset":0,
		"max":[4275]
	},
	{
		"bufferView":3,
		"type":"VEC3",
		"componentType":5126,
		"min":[-5.1873369216918949,
		-7.222599983215332,
		-93.71663665771485],
		"count":4276,
		"byteOffset":0,
		"max":[4.923913478851318,
		7.189873695373535,
		-78.86346435546875]
	},
	{
		"bufferView":3,
		"type":"VEC3",
		"componentType":5126,
		"min":[-0.9997910261154175,
		-0.9997555017471314,
		-0.9999365210533142],
		"count":4276,
		"byteOffset":12,
		"max":[0.9988617300987244,
		0.9998133182525635,
		0.9994218945503235]
	},
	{
		"bufferView":4,
		"type":"VEC4",
		"componentType":5126,
		"min":[0.0000307574009639211,
		0.0013379469746723772,
		0.0007227989262901247,
		0.003921568859368563],
		"count":4276,
		"byteOffset":0,
		"max":[0.0000307574009639211,
		0.0013379469746723772,
		0.0007227989262901247,
		0.003921568859368563]
	}],
	"bufferViews":[{
		"buffer":0,
		"byteOffset":0,
		"byteLength":39468,
		"target":34963
	},
	{
		"buffer":0,
		"byteOffset":39468,
		"byteLength":38868,
		"target":34962
	},
	{
		"buffer":1,
		"byteOffset":0,
		"byteLength":46332,
		"target":34963
	},
	{
		"buffer":1,
		"byteOffset":46332,
		"byteLength":102624,
		"target":34962,
		"byteStride":24
	},
	{
		"buffer":1,
		"byteOffset":148956,
		"byteLength":68416,
		"target":34962
	}],
	"materials":[{
		"pbrMetallicRoughness":{
			"baseColorFactor":[1.0,
			1.0,
			1.0,
			1.0],
			"metallicFactor":0.0,
			"roughnessFactor":1.0
		},
		"emissiveFactor":[0.0,
		0.0,
		0.0],
		"alphaMode":"OPAQUE",
		"doubleSided":false,
		"name":"Mat"
	}]
}