{
	"asset":{
		"version":"2.0",
		"generator":""
	},
	"scenes":[{
		"nodes":[0,
		1]
	}],
	"cameras":[{
		"type":"perspective",
		"perspective":{
			"znear":0.009999999776482582,
			"zfar":10000000000.0,
			"aspectRatio":1.7777777910232545,
			"yfov":0.1673794686794281
		}
	}],
	"nodes":[{
		"name":"Connect_remesh",
		"mesh":0,
		"translation":[-12.872809410095215,
		-10.367522239685059,
		2.3283565044403078],
		"rotation":[-0.050572410225868228,
		-0.0386492982506752,
		-0.42442619800567629,
		0.9032226204872131],
		"scale":[1.0,
		1.0,
		1.0]
	},
	{
		"camera":0,
		"name":"main",
		"translation":[-1.3694729804992676,
		2.947859287261963,
		30.82162094116211],
		"rotation":[-0.04759981855750084,
		-0.02217450737953186,
		-0.0010569613659754396,
		0.9986197352409363],
		"scale":[1.0,
		1.0,
		1.0]
	}],
	"meshes":[{
		"name":"Connect_remesh",
		"primitives":[{
			"attributes":{
				"POSITION":1
			},
			"indices":0
		}]
	}],
	"accessors":[{
		"bufferView":0,
		"type":"SCALAR",
		"componentType":5123,
		"count":19734,
		"byteOffset":0,
		"min":[0],
		"max":[3238]
	},
	{
		"bufferView":1,
		"type":"VEC3",
		"componentType":5126,
		"count":3239,
		"byteOffset":0,
		"min":[-1.1846109628677369,
		-0.20000000298023225,
		-1.1861681938171387],
		"max":[1.1917253732681275,
		26.515901565551759,
		1.1858404874801636]
	}],
	"bufferViews":[{
		"buffer":0,
		"byteOffset":0,
		"byteLength":39468,
		"target":34963
	},
	{
		"buffer":0,
		"byteOffset":39468,
		"byteLength":38868,
		"target":34962
	}],
	"buffers":[{
		"uri":"data:application/octet-stream;base64,",
		"byteLength":78336
	}]
}